HIERARCHY
ROOT hip
{
	OFFSET 0.000000 0.000000 0.000000
	CHANNELS 6 Xposition Yposition Zposition Zrotation Yrotation Xrotation 
	JOINT lhipjoint
	{
		OFFSET 0.000000 0.000000 0.000000
		CHANNELS 3 Zrotation Yrotation Xrotation
		JOINT lfemur
		{
			OFFSET 1.363060 -1.794630 0.839290
			CHANNELS 3 Zrotation Yrotation Xrotation
			JOINT ltibia
			{
				OFFSET 2.448110 -6.726130 0.000000
				CHANNELS 3 Zrotation Yrotation Xrotation
				JOINT lfoot
				{
					OFFSET 2.562200 -7.039590 0.000000
					CHANNELS 3 Zrotation Yrotation Xrotation
					JOINT ltoes
					{
						OFFSET 0.157640 -0.433110 2.322550
						CHANNELS 3 Zrotation Yrotation Xrotation
						End Site
						{
							OFFSET 0.000000 0.000000 0.000000
						}
					}
				}
			}
		}
	}
	JOINT rhipjoint
	{
		OFFSET 0.000000 0.000000 0.000000
		CHANNELS 3 Zrotation Yrotation Xrotation
		JOINT rfemur
		{
			OFFSET -1.305520 -1.794630 0.839290
			CHANNELS 3 Zrotation Yrotation Xrotation
			JOINT rtibia
			{
				OFFSET -2.542530 -6.985550 0.000000
				CHANNELS 3 Zrotation Yrotation Xrotation
				JOINT rfoot
				{
					OFFSET -2.568260 -7.056230 0.000000
					CHANNELS 3 Zrotation Yrotation Xrotation
					JOINT rtoes
					{
						OFFSET -0.164730 -0.452590 2.363150
						CHANNELS 3 Zrotation Yrotation Xrotation
						End Site
						{
							OFFSET 0.000000 0.000000 0.000000
						}
					}
				}
			}
		}
	}
	JOINT lowerback
	{
		OFFSET 0.000000 0.000000 0.000000
		CHANNELS 3 Zrotation Yrotation Xrotation
		JOINT upperback
		{
			OFFSET 0.028270 2.035590 -0.193380
			CHANNELS 3 Zrotation Yrotation Xrotation
			JOINT thorax
			{
				OFFSET 0.056720 2.048850 -0.042750
				CHANNELS 3 Zrotation Yrotation Xrotation
				JOINT lowerneck
				{
					OFFSET 0.000000 0.000000 0.000000
					CHANNELS 3 Zrotation Yrotation Xrotation
					JOINT upperneck
					{
						OFFSET -0.054170 1.746240 0.172020
						CHANNELS 3 Zrotation Yrotation Xrotation
						JOINT head
						{
							OFFSET 0.104070 1.761360 -0.123970
							CHANNELS 3 Zrotation Yrotation Xrotation
							End Site
							{
								OFFSET 0.000000 0.000000 0.000000
							}
						}
					}
				}
				JOINT lclavicle
				{
					OFFSET 0.000000 0.000000 0.000000
					CHANNELS 3 Zrotation Yrotation Xrotation
					JOINT lhumerus
					{
						OFFSET 3.362410 1.200890 -0.311210
						CHANNELS 3 Zrotation Yrotation Xrotation
						JOINT lradius
						{
							OFFSET 4.983000 -0.000000 -0.000000
							CHANNELS 3 Zrotation Yrotation Xrotation
							JOINT lwrist
							{
								OFFSET 3.483560 -0.000000 -0.000000
								CHANNELS 3 Zrotation Yrotation Xrotation
								JOINT lhand
								{
									OFFSET 0.000000 0.000000 0.000000
									CHANNELS 3 Zrotation Yrotation Xrotation
									JOINT lfingers
									{
										OFFSET 0.715260 -0.000000 -0.000000
										CHANNELS 3 Zrotation Yrotation Xrotation
										End Site
										{
											OFFSET 0.000000 0.000000 0.000000
										}
									}
								}
								JOINT lthumb
								{
									OFFSET 0.000000 0.000000 0.000000
									CHANNELS 3 Zrotation Yrotation Xrotation
									End Site
									{
										OFFSET 0.000000 0.000000 0.000000
									}
								}
							}
						}
					}
				}
				JOINT rclavicle
				{
					OFFSET 0.000000 0.000000 0.000000
					CHANNELS 3 Zrotation Yrotation Xrotation
					JOINT rhumerus
					{
						OFFSET -3.136600 1.374050 -0.404650
						CHANNELS 3 Zrotation Yrotation Xrotation
						JOINT rradius
						{
							OFFSET -5.241900 -0.000000 -0.000000
							CHANNELS 3 Zrotation Yrotation Xrotation
							JOINT rwrist
							{
								OFFSET -3.444170 -0.000000 -0.000000
								CHANNELS 3 Zrotation Yrotation Xrotation
								JOINT rhand
								{
									OFFSET 0.000000 0.000000 0.000000
									CHANNELS 3 Zrotation Yrotation Xrotation
									JOINT rfingers
									{
										OFFSET -0.622530 -0.000000 -0.000000
										CHANNELS 3 Zrotation Yrotation Xrotation
										End Site
										{
											OFFSET 0.000000 0.000000 0.000000
										}
									}
								}
								JOINT rthumb
								{
									OFFSET 0.000000 0.000000 0.000000
									CHANNELS 3 Zrotation Yrotation Xrotation
									End Site
									{
										OFFSET 0.000000 0.000000 0.000000
									}
								}
							}
						}
					}
				}
			}
		}
	}
}
MOTION
Frames: 8
Frame Time: 0.008333
0.683531 17.480939 14.841825 -176.167794 41.388442 177.537627 -2.677979 1.990503 1.124027 -7.676223 0.105596 -27.627423 3.668975 11.436271 35.157421 0.163902 1.774515 9.789335 1.173200 -6.875000 -19.345500 -0.691074 -4.183785 1.751507 18.491918 -2.908109 6.466401 -2.201172 -6.853323 24.810054 0.941719 -9.497570 -18.526051 -1.546000 7.848400 -22.254500 5.663203 0.310810 17.560556 1.128774 1.906956 -2.833728 -0.174210 2.277927 1.956909 1.098024 2.161578 -7.954388 -5.305317 5.481654 -4.375860 0.274600 3.784000 -1.930200 0.556983 2.521019 1.200470 -79.919855 13.218480 35.799107 72.874328 -67.343448 -39.771288 1.594272 -0.772846 138.465331 30.677900 15.899083 8.295600 -7.125000 0.000000 0.000000 3.767800 46.020600 0.095000 1.319147 2.100490 2.704666 80.915266 -17.919113 22.135112 -126.386408 48.987965 -86.293044 1.188681 -1.525295 -170.987275 -6.665203 0.888975 0.040500 7.125000 0.000000 0.000000 16.683900 -30.174300 6.278300 
0.691526 17.479094 14.811179 -176.081217 41.420346 177.713991 -2.672758 1.981572 1.119155 -7.639405 0.179320 -27.781244 3.722297 11.518814 35.447978 0.196015 1.465153 9.374846 1.136600 -6.770600 -19.037400 -0.696162 -4.184070 1.755879 18.542574 -2.793313 6.573931 -2.177602 -6.807335 24.665646 0.968478 -9.611048 -18.550816 -1.547200 7.851300 -22.263400 5.788534 0.339010 17.321903 1.134865 1.943499 -2.834512 -0.182470 2.300578 2.068696 0.988112 2.136367 -8.059612 -5.319645 5.442687 -4.300878 0.300000 3.765000 -1.882600 0.547549 2.530453 1.182817 -79.661183 13.420457 35.597578 72.770304 -67.323077 -39.745835 1.597024 -0.748024 138.348089 30.524451 16.222144 8.447300 -7.125000 0.000000 0.000000 3.612600 46.390200 0.124100 1.327618 2.088187 2.701315 80.890347 -17.944969 22.018156 -126.589626 48.922111 -86.531983 1.188758 -1.526542 -170.858566 -6.678272 0.939979 0.035600 7.125000 0.000000 0.000000 16.667500 -30.123400 6.292900 
0.700443 17.476839 14.778586 -175.988530 41.423953 177.906626 -2.665375 1.971187 1.111907 -7.604764 0.252574 -27.970213 3.778996 11.605467 35.755937 0.236982 1.105699 8.949895 1.133100 -6.760500 -19.007700 -0.700268 -4.183631 1.760705 18.615061 -2.658430 6.697601 -2.153147 -6.757648 24.511813 1.006039 -9.784161 -18.615092 -1.564000 7.891800 -22.386000 5.912384 0.350437 17.059203 1.138525 1.952804 -2.833575 -0.208455 2.311221 2.195844 0.891111 2.117019 -8.152322 -5.300646 5.417963 -4.238670 0.337900 3.755300 -1.848500 0.536589 2.545235 1.167882 -79.447792 13.672391 35.307810 72.573348 -67.290292 -39.662445 1.590505 -0.721087 138.352480 30.302717 16.526247 8.569700 -7.125000 0.000000 0.000000 3.386700 46.741400 0.145700 1.329891 2.075304 2.699101 80.874386 -17.930287 21.949793 -126.815426 48.845071 -86.790946 1.192112 -1.530404 -170.735388 -6.666301 1.036580 0.026700 7.125000 0.000000 0.000000 16.665700 -30.030000 6.331100 
0.710282 17.472842 14.743124 -175.933691 41.429466 178.068276 -2.660242 1.962993 1.104297 -7.590676 0.305731 -28.147943 3.840608 11.696166 36.081188 0.277076 0.751453 8.501958 1.173400 -6.875600 -19.347400 -0.705843 -4.181572 1.764756 18.658106 -2.517118 6.847712 -2.126741 -6.704050 24.344584 1.047783 -9.975297 -18.685736 -1.574100 7.916100 -22.459400 5.981639 0.365312 16.801400 1.148046 1.963450 -2.831984 -0.166760 2.315983 2.311519 0.742940 2.084319 -8.181195 -5.300822 5.384310 -4.208979 0.371500 3.744400 -1.846600 0.528408 2.562278 1.155768 -79.273316 13.964843 35.013812 72.176403 -67.243961 -39.439726 1.574806 -0.688534 138.297330 30.093579 16.790794 8.676000 -7.125000 0.000000 0.000000 3.167200 47.061000 0.161200 1.334427 2.060472 2.700150 80.801008 -17.866597 21.916711 -127.014728 48.775614 -87.027928 1.197490 -1.540316 -170.643199 -6.552066 1.182408 0.013500 7.125000 0.000000 0.000000 16.736400 -29.892300 6.417800 
0.720327 17.467922 14.704996 -175.839950 41.424021 178.236432 -2.652284 1.954476 1.097978 -7.545259 0.379060 -28.329878 3.904573 11.791485 36.418166 0.324091 0.369466 8.068841 1.246200 -7.077900 -19.946400 -0.712000 -4.180076 1.770349 18.737102 -2.355096 7.045817 -2.100112 -6.647525 24.172681 1.086405 -10.172458 -18.795931 -1.593100 7.961500 -22.597100 6.092067 0.367962 16.581364 1.155403 1.964866 -2.833443 -0.159280 2.318797 2.398982 0.598449 2.054291 -8.193632 -5.282636 5.354571 -4.177349 0.415500 3.735600 -1.846500 0.518449 2.576343 1.143242 -79.133770 14.342445 34.619902 71.624250 -67.174907 -39.126396 1.544110 -0.660323 138.381278 29.932658 16.983578 8.758500 -7.125000 0.000000 0.000000 2.986500 47.316200 0.170800 1.333746 2.050190 2.701513 80.719324 -17.768236 21.929443 -127.253001 48.684372 -87.311199 1.207515 -1.554720 -170.594076 -6.387342 1.415234 -0.006200 7.125000 0.000000 0.000000 16.835000 -29.674300 6.550600 
0.731396 17.462797 14.665126 -175.746216 41.413006 178.425528 -2.645029 1.944880 1.087075 -7.482431 0.396564 -28.519831 3.971734 11.887547 36.757867 0.360531 0.048670 7.590560 1.316800 -7.268200 -20.512500 -0.719317 -4.175448 1.774308 18.846496 -2.118337 7.259575 -2.072220 -6.588434 23.991967 1.143852 -10.457536 -18.940519 -1.607800 7.996400 -22.703100 6.172936 0.369127 16.334224 1.166602 1.962412 -2.827043 -0.116381 2.318243 2.534545 0.445364 2.026384 -8.241443 -5.263237 5.332970 -4.163120 0.460000 3.733800 -1.849100 0.513260 2.598882 1.133773 -79.030376 14.708265 34.198480 70.893922 -67.080616 -38.689303 1.503061 -0.627507 138.513962 29.714109 17.138120 8.805100 -7.125000 0.000000 0.000000 2.746200 47.534800 0.171900 1.333655 2.030685 2.702139 80.609312 -17.554239 21.979089 -127.462124 48.612451 -87.538076 1.202641 -1.562721 -170.642306 -6.261747 1.431769 -0.006700 7.125000 0.000000 0.000000 16.925800 -29.664700 6.592900 
0.743080 17.456648 14.622898 -175.654257 41.399289 178.604189 -2.637480 1.936340 1.076185 -7.416316 0.395750 -28.696944 4.043202 11.986439 37.109009 0.392269 -0.238752 7.093955 1.404000 -7.495300 -21.191300 -0.725502 -4.173048 1.778015 18.928376 -1.955922 7.468174 -2.043410 -6.526014 23.801768 1.194115 -10.701288 -19.056431 -1.635900 8.062600 -22.904300 6.247487 0.372907 16.109091 1.173890 1.961470 -2.820045 -0.107427 2.319936 2.664116 0.368041 2.006367 -8.304320 -5.270124 5.311396 -4.140335 0.475100 3.726500 -1.836800 0.509365 2.618894 1.120497 -78.850983 15.108970 33.777847 70.127397 -66.967213 -38.239110 1.455164 -0.601180 138.600281 29.533287 17.166539 8.790100 -7.125000 0.000000 0.000000 2.542700 47.614800 0.164200 1.333583 2.009910 2.701531 80.533334 -17.262881 22.040217 -127.695731 48.528987 -87.792665 1.202353 -1.568225 -170.732975 -6.196671 1.510212 -0.012500 7.125000 0.000000 0.000000 16.962200 -29.595100 6.637800 
0.754867 17.449576 14.579543 -175.551679 41.356085 178.801620 -2.626927 1.925826 1.062845 -7.341673 0.390225 -28.909547 4.115942 12.083800 37.456086 0.417935 -0.479872 6.590468 1.482200 -7.692100 -21.782800 -0.730444 -4.170401 1.784661 19.047388 -1.719185 7.704959 -2.013711 -6.461727 23.605825 1.252622 -10.999882 -19.223702 -1.657600 8.113100 -23.058000 6.328000 0.386231 15.902201 1.173281 1.970219 -2.813348 -0.159204 2.330476 2.799506 0.364593 1.981687 -8.452567 -5.255927 5.276487 -4.100574 0.488600 3.710100 -1.791500 0.505022 2.634316 1.101894 -78.560542 15.483093 33.420326 69.216546 -66.815557 -37.697043 1.398680 -0.573417 138.646909 29.330851 17.149924 8.745000 -7.125000 0.000000 0.000000 2.314600 47.649400 0.151400 1.327480 1.991386 2.694678 80.568720 -16.911494 22.091232 -127.953355 48.432574 -88.043169 1.189467 -1.574596 -170.741152 -6.148173 1.359859 0.000800 7.125000 0.000000 0.000000 17.016500 -29.747100 6.596100 
